Michael Jackson This Is It (2009) DVDRip XviD-MAX

Format                           : AVI
Format/Info                      : Audio Video Interleave
File size                        : 1.36 GiB
Duration                         : 1h 51mn
Overall bit rate                 : 1 750 Kbps
Writing application              : VirtualDubMod 1.5.10.2 (build 2542/release)
Writing library                  : VirtualDubMod build 2542/release
Original source form             : MAX TORRENTZ
Copyright                        : SIGISMUNT

Video
ID                               : 0
Format                           : MPEG-4 Visual
Format profile                   : AdvancedSimple@L5
Format settings, BVOP            : Yes
Format settings, QPel            : No
Format settings, GMC             : No warppoints
Format settings, Matrix          : Default (MPEG)
Muxing mode                      : Packed bitstream
Codec ID                         : XVID
Codec ID/Hint                    : XviD
Duration                         : 1h 51mn
Bit rate                         : 1 294 Kbps
Width                            : 640 pixels
Height                           : 352 pixels
Display aspect ratio             : 16:9
Frame rate                       : 23.976 fps
Resolution                       : 24 bits
Colorimetry                      : 4:2:0
Scan type                        : Progressive
Bits/(Pixel*Frame)               : 0.240
Stream size                      : 1.01 GiB (74%)
Writing library                  : XviD 1.2.1 (UTC 2008-12-04)

Audio
ID                               : 1
Format                           : AC-3
Format/Info                      : Audio Coding 3
Codec ID                         : 2000
Duration                         : 1h 51mn
Bit rate mode                    : Constant
Bit rate                         : 448 Kbps
Channel(s)                       : 6 channels
Channel positions                : Front: L C R, Surround: L R, LFE
Sampling rate                    : 48.0 KHz
Stream size                      : 357 MiB (26%)
Alignment                        : Split accross interleaves
Interleave, duration             : 42 ms (1.00 video frame)
Interleave, preload duration     : 500 ms 
http://www.imdb.com/title/tt1477715/

Screens: 
http://www.postimg.com/image/10000/9019.jpg
http://www.postimg.com/image/10000/9020.jpg
http://www.postimg.com/image/10000/9021.jpg
http://www.postimg.com/image/10000/9022.jpg

ScreensCaps: 
http://www.postimg.com/image/10000/9023.jpg

Michael Jackson This Is It (2009) DVDRip XviD-MAX Torrent Free Download 
http://thepiratebay.org/user/extremezone/0/7